<svg width="120" height="120" viewBox="0 0 120 120" fill="none" xmlns="http://www.w3.org/2000/svg">
<path d="M90 20H30C24.4772 20 20 24.4772 20 30V90C20 95.5229 24.4772 100 30 100H90C95.5229 100 100 95.5229 100 90V30C100 24.4772 95.5229 20 90 20Z" fill="#16161D"/>
<path d="M41.6 31.8C41.6 29.0386 39.3614 26.8 36.6 26.8C33.8386 26.8 31.6 29.0386 31.6 31.8V35C31.6 37.7614 33.8386 40 36.6 40C39.3614 40 41.6 37.7614 41.6 35V31.8Z" fill="#FF4D4D"/>
<path d="M88.8001 85C88.8001 82.2386 86.5615 80 83.8001 80C81.0386 80 78.8 82.2386 78.8 85V88.2C78.8 90.9614 81.0386 93.2 83.8001 93.2C86.5615 93.2 88.8001 90.9614 88.8001 88.2V85Z" fill="#50E3C2"/>
<path d="M65.2 31.8C65.2 29.0386 62.9614 26.8 60.2 26.8C57.4385 26.8 55.2 29.0386 55.2 31.8V48.2C55.2 50.9614 57.4385 53.2 60.2 53.2C62.9614 53.2 65.2 50.9614 65.2 48.2V31.8Z" fill="#2CBE4E"/>
<path d="M65.2 71.8C65.2 69.0386 62.9614 66.8 60.2 66.8C57.4385 66.8 55.2 69.0386 55.2 71.8V88.2C55.2 90.9614 57.4385 93.2 60.2 93.2C62.9614 93.2 65.2 90.9614 65.2 88.2V71.8Z" fill="#F7BA54"/>
<path d="M41.6 58.2C41.6 55.4386 39.3614 53.2 36.6 53.2C33.8386 53.2 31.6 55.4386 31.6 58.2V88.2C31.6 90.9614 33.8386 93.2 36.6 93.2C39.3614 93.2 41.6 90.9614 41.6 88.2V58.2Z" fill="#0076FF"/>
<path d="M88.8001 31.8C88.8001 29.0386 86.5615 26.8 83.8001 26.8C81.0386 26.8 78.8 29.0386 78.8 31.8V61.8C78.8 64.5614 81.0386 66.8 83.8001 66.8C86.5615 66.8 88.8001 64.5614 88.8001 61.8V31.8Z" fill="#D400FF"/>
</svg>
